{"title":"Bahar S01E01.DVDrip.By.Anonymous.Greek Subs","uid":15185143,"size":383513384,"categoryP":"video","categoryS":"tv_shows","magnet":"?xt=urn:btih:abede9017b3bcda65fb49b51a1d4f443f7f464f1&amp;dn=Bahar+S01E01.DVDrip.By.Anonymous.Greek+Subs&amp;tr=udp%3A%2F%2Ftracker.leechers-paradise.org%3A6969&amp;tr=udp%3A%2F%2Fzer0day.ch%3A1337&amp;tr=udp%3A%2F%2Fopen.demonii.com%3A1337&amp;tr=udp%3A%2F%2Ftracker.coppersurfer.tk%3A6969&amp;tr=udp%3A%2F%2Fexodus.desync.com%3A6969","seeders":2,"leechers":0,"uploader":"Aris2015","files":1,"time":1467487893,"description":"DOWNLOAD AND ENJOY. \r\n\r\nKEEP IT FOR LONG SEEDING TO HELP OTHERS! \r\n\r\nThanks to  encoder \r\n   Movie Share.\r\n\r\nS01EP01 DVDRIP APO ANONYMOUS.\r\n\r\nGeneral\r\nComplete name               : Bahar S01E01.DVDrip by Anonymous.avi\r\nFormat                      : AVI\r\nFormat/Info                 : Audio Video Interleave\r\nFile size                   : 366 MiB\r\nDuration                    : 49mn 33s\r\nOverall bit rate            : 1 032 Kbps\r\nMovie name                  : Bahar S01E01 DVDrip by Anonymous\r\nWriting application         : Lavf57.37.100\r\n\r\nVideo\r\nID                          : 0\r\nFormat                      : AVC\r\nFormat/Info                 : Advanced Video Codec\r\nFormat profile              :   \r\nFormat settings, CABAC      : Yes\r\nFormat settings, ReFrames   : 1 frame\r\nCodec ID                    : H264\r\nDuration                    : 49mn 33s\r\nBit rate                    : 892 Kbps\r\nWidth                       : 1 024 pixels\r\nHeight                      : 576 pixels\r\nDisplay aspect ratio        : 16:9\r\nFrame rate                  : 23.976 (24000/1001) fps\r\nColor space                 : YUV\r\nChroma subsampling          : 4:2:0\r\nBit depth                   : 8 bits\r\nScan type                   : Progressive\r\nBits/(Pixel*Frame)          : 0.063\r\nStream size                 : 316 MiB (86%)\r\n\r\nAudio\r\nID                          : 1\r\nFormat                      : MPEG Audio\r\nFormat version              : Version 1\r\nFormat profile              : Layer 3\r\nMode                        : Joint stereo\r\nMode extension              : MS Stereo\r\nCodec ID                    : 55\r\nCodec ID/Hint               : MP3\r\nDuration                    : 49mn 33s\r\nBit rate mode               : Constant\r\nBit rate                    : 128 Kbps\r\nChannel(s)                  : 2 channels\r\nSampling rate               : 44.1 KHz\r\nCompression mode            : Lossy\r\nStream size                 : 45.4 MiB (12%)\r\nAlignment                   : Aligned on interleaves\r\nInterleave, duration        : 26 ms (0.63 video frame)\r\nInterleave, preload duratio : 104 ms\r\nWriting library             : LAME3.98.2\r\n\r\nSCREENSHOT: \nhttp://imgur.com/9chl2T6","torrent":{"xt":"urn:btih:abede9017b3bcda65fb49b51a1d4f443f7f464f1","amp;dn":"Bahar+S01E01.DVDrip.By.Anonymous.Greek+Subs","amp;tr":["udp%3A%2F%2Ftracker.leechers-paradise.org%3A6969","udp%3A%2F%2Fzer0day.ch%3A1337","udp%3A%2F%2Fopen.demonii.com%3A1337","udp%3A%2F%2Ftracker.coppersurfer.tk%3A6969","udp%3A%2F%2Fexodus.desync.com%3A6969"],"infoHash":"abede9017b3bcda65fb49b51a1d4f443f7f464f1","infoHashBuffer":{"type":"Buffer","data":[171,237,233,1,123,59,205,166,95,180,155,81,161,212,244,67,247,244,100,241]},"announce":[],"urlList":[]}}